<svg id="visual" viewBox="0 0 960 540" width="960" height="540" xmlns="http://www.w3.org/2000/svg" xmlns:xlink="http://www.w3.org/1999/xlink" version="1.1"><rect x="0" y="0" width="960" height="540" fill="#f8fbfd"></rect><defs><linearGradient id="grad1_0" x1="43.8%" y1="100%" x2="100%" y2="0%"><stop offset="14.444444444444446%" stop-color="#a8cdec" stop-opacity="1"></stop><stop offset="85.55555555555554%" stop-color="#a8cdec" stop-opacity="1"></stop></linearGradient></defs><defs><linearGradient id="grad1_1" x1="43.8%" y1="100%" x2="100%" y2="0%"><stop offset="14.444444444444446%" stop-color="#a8cdec" stop-opacity="1"></stop><stop offset="85.55555555555554%" stop-color="#f8fbfd" stop-opacity="1"></stop></linearGradient></defs><defs><linearGradient id="grad2_0" x1="0%" y1="100%" x2="56.3%" y2="0%"><stop offset="14.444444444444446%" stop-color="#a8cdec" stop-opacity="1"></stop><stop offset="85.55555555555554%" stop-color="#a8cdec" stop-opacity="1"></stop></linearGradient></defs><defs><linearGradient id="grad2_1" x1="0%" y1="100%" x2="56.3%" y2="0%"><stop offset="14.444444444444446%" stop-color="#f8fbfd" stop-opacity="1"></stop><stop offset="85.55555555555554%" stop-color="#a8cdec" stop-opacity="1"></stop></linearGradient></defs><g transform="translate(960, 540)"><path d="M-243 0C-235.4 -30.1 -227.7 -60.3 -217.1 -89.9C-206.5 -119.6 -192.9 -148.8 -171.8 -171.8C-150.7 -194.9 -122.1 -211.8 -92.2 -222.7C-62.3 -233.5 -31.2 -238.2 0 -243L0 0Z" fill="#cfe4f4"></path><path d="M-121.5 0C-117.7 -15.1 -113.9 -30.1 -108.6 -45C-103.3 -59.8 -96.5 -74.4 -85.9 -85.9C-75.4 -97.4 -61.1 -105.9 -46.1 -111.3C-31.2 -116.7 -15.6 -119.1 0 -121.5L0 0Z" fill="#a8cdec"></path></g><g transform="translate(0, 0)"><path d="M243 0C231 27.4 218.9 54.8 209.7 86.9C200.5 118.9 194.2 155.6 171.8 171.8C149.4 188 110.9 183.7 79.6 192.2C48.3 200.6 24.1 221.8 0 243L0 0Z" fill="#cfe4f4"></path><path d="M121.5 0C115.5 13.7 109.5 27.4 104.9 43.4C100.3 59.5 97.1 77.8 85.9 85.9C74.7 94 55.5 91.9 39.8 96.1C24.1 100.3 12.1 110.9 0 121.5L0 0Z" fill="#a8cdec"></path></g></svg>