<svg id="visual" viewBox="0 0 960 540" width="960" height="540" xmlns="http://www.w3.org/2000/svg" xmlns:xlink="http://www.w3.org/1999/xlink" version="1.1"><path d="M0 131L87 131L87 82L175 82L175 87L262 87L262 163L349 163L349 141L436 141L436 120L524 120L524 125L611 125L611 141L698 141L698 87L785 87L785 98L873 98L873 98L960 98L960 98L960 0L960 0L873 0L873 0L785 0L785 0L698 0L698 0L611 0L611 0L524 0L524 0L436 0L436 0L349 0L349 0L262 0L262 0L175 0L175 0L87 0L87 0L0 0Z" fill="#f8fbfd"></path><path d="M0 330L87 330L87 239L175 239L175 314L262 314L262 352L349 352L349 330L436 330L436 282L524 282L524 303L611 303L611 330L698 330L698 282L785 282L785 228L873 228L873 222L960 222L960 222L960 96L960 96L873 96L873 96L785 96L785 85L698 85L698 139L611 139L611 123L524 123L524 118L436 118L436 139L349 139L349 161L262 161L262 85L175 85L175 80L87 80L87 129L0 129Z" fill="#b2d8fd"></path><path d="M0 433L87 433L87 444L175 444L175 449L262 449L262 482L349 482L349 438L436 438L436 422L524 422L524 433L611 433L611 428L698 428L698 476L785 476L785 476L873 476L873 444L960 444L960 422L960 220L960 220L873 220L873 226L785 226L785 280L698 280L698 328L611 328L611 301L524 301L524 280L436 280L436 328L349 328L349 350L262 350L262 312L175 312L175 237L87 237L87 328L0 328Z" fill="#7bb0fc"></path><path d="M0 541L87 541L87 541L175 541L175 541L262 541L262 541L349 541L349 541L436 541L436 541L524 541L524 541L611 541L611 541L698 541L698 541L785 541L785 541L873 541L873 541L960 541L960 541L960 420L960 442L873 442L873 474L785 474L785 474L698 474L698 426L611 426L611 431L524 431L524 420L436 420L436 436L349 436L349 480L262 480L262 447L175 447L175 442L87 442L87 431L0 431Z" fill="#5f83f4"></path></svg>