<svg id="visual" viewBox="0 0 960 540" width="960" height="540" xmlns="http://www.w3.org/2000/svg" xmlns:xlink="http://www.w3.org/1999/xlink" version="1.1"><rect x="0" y="0" width="960" height="540" fill="#f8fbfd"></rect><path d="M0 373L17.8 378C35.7 383 71.3 393 106.8 393.5C142.3 394 177.7 385 213.2 383.8C248.7 382.7 284.3 389.3 320 392.5C355.7 395.7 391.3 395.3 426.8 397.3C462.3 399.3 497.7 403.7 533.2 398.8C568.7 394 604.3 380 640 377.3C675.7 374.7 711.3 383.3 746.8 385.5C782.3 387.7 817.7 383.3 853.2 380.2C888.7 377 924.3 375 942.2 374L960 373L960 541L942.2 541C924.3 541 888.7 541 853.2 541C817.7 541 782.3 541 746.8 541C711.3 541 675.7 541 640 541C604.3 541 568.7 541 533.2 541C497.7 541 462.3 541 426.8 541C391.3 541 355.7 541 320 541C284.3 541 248.7 541 213.2 541C177.7 541 142.3 541 106.8 541C71.3 541 35.7 541 17.8 541L0 541Z" fill="#c5e9f9"></path><path d="M0 419L17.8 422C35.7 425 71.3 431 106.8 433.5C142.3 436 177.7 435 213.2 432.7C248.7 430.3 284.3 426.7 320 424.8C355.7 423 391.3 423 426.8 426.7C462.3 430.3 497.7 437.7 533.2 444.5C568.7 451.3 604.3 457.7 640 455C675.7 452.3 711.3 440.7 746.8 440.7C782.3 440.7 817.7 452.3 853.2 451.8C888.7 451.3 924.3 438.7 942.2 432.3L960 426L960 541L942.2 541C924.3 541 888.7 541 853.2 541C817.7 541 782.3 541 746.8 541C711.3 541 675.7 541 640 541C604.3 541 568.7 541 533.2 541C497.7 541 462.3 541 426.8 541C391.3 541 355.7 541 320 541C284.3 541 248.7 541 213.2 541C177.7 541 142.3 541 106.8 541C71.3 541 35.7 541 17.8 541L0 541Z" fill="#96cce8"></path><path d="M0 485L17.8 484.2C35.7 483.3 71.3 481.7 106.8 477.3C142.3 473 177.7 466 213.2 471.3C248.7 476.7 284.3 494.3 320 496.5C355.7 498.7 391.3 485.3 426.8 483.8C462.3 482.3 497.7 492.7 533.2 495.7C568.7 498.7 604.3 494.3 640 491.3C675.7 488.3 711.3 486.7 746.8 486.5C782.3 486.3 817.7 487.7 853.2 489.7C888.7 491.7 924.3 494.3 942.2 495.7L960 497L960 541L942.2 541C924.3 541 888.7 541 853.2 541C817.7 541 782.3 541 746.8 541C711.3 541 675.7 541 640 541C604.3 541 568.7 541 533.2 541C497.7 541 462.3 541 426.8 541C391.3 541 355.7 541 320 541C284.3 541 248.7 541 213.2 541C177.7 541 142.3 541 106.8 541C71.3 541 35.7 541 17.8 541L0 541Z" fill="#66aed8"></path></svg>