<?xml version="1.0" standalone="no"?>
<svg xmlns:xlink="http://www.w3.org/1999/xlink" id="wave" style="transform:rotate(180deg); transition: 0.3s" viewBox="0 0 1440 380" version="1.1" xmlns="http://www.w3.org/2000/svg"><defs><linearGradient id="sw-gradient-0" x1="0" x2="0" y1="1" y2="0"><stop stop-color="rgba(106.007, 176.092, 248.49, 1)" offset="0%"/><stop stop-color="rgba(255, 255, 255, 1)" offset="100%"/></linearGradient></defs><path style="transform:translate(0, 0px); opacity:1" fill="url(#sw-gradient-0)" d="M0,38L80,57C160,76,320,114,480,120.3C640,127,800,101,960,82.3C1120,63,1280,51,1440,76C1600,101,1760,165,1920,202.7C2080,241,2240,253,2400,215.3C2560,177,2720,89,2880,50.7C3040,13,3200,25,3360,50.7C3520,76,3680,114,3840,139.3C4000,165,4160,177,4320,158.3C4480,139,4640,89,4800,69.7C4960,51,5120,63,5280,107.7C5440,152,5600,228,5760,247C5920,266,6080,228,6240,209C6400,190,6560,190,6720,171C6880,152,7040,114,7200,95C7360,76,7520,76,7680,63.3C7840,51,8000,25,8160,12.7C8320,0,8480,0,8640,57C8800,114,8960,228,9120,278.7C9280,329,9440,317,9600,285C9760,253,9920,203,10080,190C10240,177,10400,203,10560,196.3C10720,190,10880,152,11040,126.7C11200,101,11360,89,11440,82.3L11520,76L11520,380L11440,380C11360,380,11200,380,11040,380C10880,380,10720,380,10560,380C10400,380,10240,380,10080,380C9920,380,9760,380,9600,380C9440,380,9280,380,9120,380C8960,380,8800,380,8640,380C8480,380,8320,380,8160,380C8000,380,7840,380,7680,380C7520,380,7360,380,7200,380C7040,380,6880,380,6720,380C6560,380,6400,380,6240,380C6080,380,5920,380,5760,380C5600,380,5440,380,5280,380C5120,380,4960,380,4800,380C4640,380,4480,380,4320,380C4160,380,4000,380,3840,380C3680,380,3520,380,3360,380C3200,380,3040,380,2880,380C2720,380,2560,380,2400,380C2240,380,2080,380,1920,380C1760,380,1600,380,1440,380C1280,380,1120,380,960,380C800,380,640,380,480,380C320,380,160,380,80,380L0,380Z"/></svg>